        <svg version="1.1" xmlns="http://www.w3.org/2000/svg" viewBox="0 0 60 60" width="24px" height="24px">
            <style type="text/css">
                .st2{fill:none;stroke:currentColor;stroke-width:4;stroke-miterlimit:10;}
                .st3{fill:none;stroke:currentColor;stroke-width:4;stroke-linecap:round;stroke-miterlimit:10;}
            </style>
            <path class="st2" d="M52.3,7l-3.9-3.9c0,0-0.6-0.9-1.5,0c-0.9,0.9-40,40-40,40s-0.5,0.3-0.5,1
                c-0.2,0.6-3.1,11.4-3.1,11.4s-0.2,0.5,0,0.7c0.2,0.2,0.8,0,0.8,0l11.9-3.8
                c0,0,0.4-0.1,0.9-0.5s39.7-39.7,39.7-39.7s0.4-0.5,0.1-0.7C56.6,11.2,52.4,7,52.3,7z"/>
            <line class="st3" x1="4.2" y1="56.4" x2="28.5" y2="56.4"/>
            <line class="st3" x1="34.8" y1="56.4" x2="47.7" y2="56.4"/>
        </svg>