<?xml version="1.0" encoding="utf-8"?>
<!-- Generator: Adobe Illustrator 27.5.0, SVG Export Plug-In . SVG Version: 6.00 Build 0)  -->
<svg version="1.1" id="Layer_1" xmlns="http://www.w3.org/2000/svg" xmlns:xlink="http://www.w3.org/1999/xlink" x="0px" y="0px"
	 viewBox="0 0 24 24.9" style="enable-background:new 0 0 24 24.9;" xml:space="preserve">
<style type="text/css">
    .st0{fill:none;stroke:#fff;stroke-width:0.9;stroke-linecap:round;stroke-miterlimit:10;}
    .st1{fill:#fff;}
    .st2{fill:none;stroke:#fff;stroke-width:1.1;stroke-miterlimit:10;}
    .st3{fill:none;stroke:#fff;stroke-width:1.4;stroke-miterlimit:10;}
    .st4{fill:#B6272D;}

    @keyframes fadeInOutWave1 {
        0%, 100% { opacity: 0; transform: translateX(10px); }
        10%, 60% { opacity: 1; transform: translateX(0); }
        90% { opacity: 0; transform: translateX(0); }
    }

    @keyframes fadeInOutWave2 {
        0%, 100% { opacity: 0; transform: translateX(10px); }
        20%, 70% { opacity: 1; transform: translateX(0); }
        90% { opacity: 0; transform: translateX(0); }
    }

    @keyframes fadeInOutWave3 {
        0%, 100% { opacity: 0; transform: translateX(10px); }
        30%, 80% { opacity: 1; transform: translateX(0); }
        90% { opacity: 0; transform: translateX(0); }
    }


    #wave3 {
        animation: fadeInOutWave1 4s cubic-bezier(.65,0,.34,1) infinite;
    }

    #wave2 {
        animation: fadeInOutWave2 4s cubic-bezier(.65,0,.34,1) infinite;
    }

    #wave1 {
        animation: fadeInOutWave3 4s cubic-bezier(.65,0,.34,1) infinite;
    }
</style>

<g id="wave">
	<path id="wave1" class="st0" d="M22.4,6.5c0,0-0.6,0.2-0.6,0.8c0,0,0,0.6,0.6,0.8"/>
	<path id="wave2" class="st0" d="M21.3,4.9c0,0-1.4,0.6-1.4,2.3c0,0,0,1.8,1.4,2.4"/>
	<path id="wave3" class="st0" d="M20.1,3.8c0,0-2.1,0.8-2.1,3.4c0,0,0,2.7,2.1,3.6"/>
</g>
<g id="mic">
	<path class="st1" d="M9.8,8.2c0.1-0.7,0.3-1.9,2.2-1.9c1.8,0,2.2,1,2.4,1.9c0.2,0.9,0.1,5-0.1,5.8c-0.2,0.6-0.6,2.2-2.3,2.1
		c-1.7,0-2.1-1.5-2.2-2.1C9.6,13.3,9.7,8.9,9.8,8.2z"/>
	<path class="st2" d="M7.2,13.4c0,0.3,0.4,4.6,4.8,4.6s4.9-4.1,4.9-4.6"/>
	<line class="st3" x1="12.1" y1="21.1" x2="12.1" y2="18"/>
	<path class="st4" d="M14.4,8.2"/>
	<path class="st4" d="M9.8,14.1"/>
	<path class="st4" d="M14.4,8.2"/>
	<path class="st4" d="M14.4,8.2"/>
	<path class="st4" d="M14.4,8.2"/>
</g>
</svg>
